# xmcd CD database file
# Copyright (C) 1993-1998 Ti Kan
#
# Track frame offsets:
#  150
#  15103
#  33165
#  49603
#  66830
#  86978
#  99420
#  109005
#  121653
#  141135
#  155103
#  170288
#
# Disc length: 2519 seconds
#
# Revision: 1
# Processed by: cddbd v1.4b41PL1 Copyright (c) Steve Scherf et al.
# Submitted via: CDWizzard Release:4.13
#
DISCID=8e09d50c
DTITLE=Marianne Faithfull - Faithless
DYEAR=1900
DGENRE=
TTITLE0=Dreamin' My Dreams
TTITLE1=Vanilla O'Lay
TTITLE2=Wait For Me Down By The River
TTITLE3=I'll Be Your Baby Tonight
TTITLE4=Lady Madelaine
TTITLE5=All I Want To Do In Life
TTITLE6=The Way You Want Me To Be
TTITLE7=Wrong Road Again
TTITLE8=That Was The Day (Nashville)
TTITLE9=This Time
TTITLE10=I'm Not Lisa
TTITLE11=Honky Tonk Angels
EXTD=
EXTT0=
EXTT1=
EXTT2=
EXTT3=
EXTT4=
EXTT5=
EXTT6=
EXTT7=
EXTT8=
EXTT9=
EXTT10=
EXTT11=
PLAYORDER=
